<svg width="220" height="48" viewBox="0 0 220 48" fill="none" xmlns="http://www.w3.org/2000/svg">
<rect width="220" height="48" fill="#860606"/>
<path d="M3.19602 9.90909H8.52273L17.7841 32.5227H18.125L27.3864 9.90909H32.7131V39H28.5369V17.9489H28.267L19.6875 38.9574H16.2216L7.64205 17.9347H7.37216V39H3.19602V9.90909ZM45.3871 39.5114C44.0045 39.5114 42.7498 39.2509 41.6229 38.7301C40.496 38.1998 39.6011 37.4375 38.9382 36.4432C38.2753 35.4394 37.9439 34.2273 37.9439 32.8068C37.9439 31.5568 38.1901 30.5436 38.6825 29.767C39.175 28.9811 39.8331 28.3655 40.657 27.9205C41.4808 27.4754 42.3899 27.1439 43.3842 26.9261C44.388 26.6989 45.3965 26.5189 46.4098 26.3864C47.7356 26.2159 48.8104 26.0881 49.6342 26.0028C50.4676 25.9081 51.0736 25.7519 51.4524 25.5341C51.8407 25.3163 52.0348 24.9375 52.0348 24.3977V24.2841C52.0348 22.8826 51.6513 21.7936 50.8842 21.017C50.1267 20.2405 48.9761 19.8523 47.4325 19.8523C45.8321 19.8523 44.5774 20.2027 43.6683 20.9034C42.7592 21.6042 42.12 22.3523 41.7507 23.1477L38.5689 22.0114C39.1371 20.6856 39.8946 19.6534 40.8416 18.9148C41.7981 18.1667 42.8397 17.6458 43.9666 17.3523C45.103 17.0492 46.2204 16.8977 47.3189 16.8977C48.0196 16.8977 48.8246 16.983 49.7337 17.1534C50.6522 17.3144 51.5376 17.6506 52.3899 18.1619C53.2517 18.6733 53.9666 19.4451 54.5348 20.4773C55.103 21.5095 55.3871 22.892 55.3871 24.625V39H52.0348V36.0455H51.8643C51.6371 36.5189 51.2583 37.0256 50.728 37.5653C50.1977 38.1051 49.4922 38.5644 48.6115 38.9432C47.7308 39.322 46.656 39.5114 45.3871 39.5114ZM45.8984 36.5C47.2242 36.5 48.3416 36.2396 49.2507 35.7188C50.1693 35.1979 50.8606 34.5256 51.3246 33.7017C51.7981 32.8778 52.0348 32.0114 52.0348 31.1023V28.0341C51.8928 28.2045 51.5803 28.3608 51.0973 28.5028C50.6238 28.6354 50.0746 28.7538 49.4496 28.858C48.834 28.9527 48.2327 29.0379 47.6456 29.1136C47.0679 29.1799 46.5992 29.2367 46.2393 29.2841C45.3681 29.3977 44.5537 29.5824 43.7962 29.8381C43.0481 30.0843 42.442 30.4583 41.978 30.9602C41.5234 31.4527 41.2962 32.125 41.2962 32.9773C41.2962 34.142 41.727 35.0227 42.5888 35.6193C43.46 36.2064 44.5632 36.5 45.8984 36.5ZM64.6307 31.0455L64.5739 26.8977H65.2557L74.8011 17.1818H78.9489L68.7784 27.4659H68.4943L64.6307 31.0455ZM61.5057 39V9.90909H64.858V39H61.5057ZM75.3693 39L66.8466 28.2045L69.233 25.875L79.6307 39H75.3693ZM91.5128 39.4545C89.4105 39.4545 87.5971 38.9905 86.0724 38.0625C84.5573 37.125 83.3878 35.8182 82.5639 34.142C81.7495 32.4564 81.3423 30.4962 81.3423 28.2614C81.3423 26.0265 81.7495 24.0568 82.5639 22.3523C83.3878 20.6383 84.5336 19.303 86.0014 18.3466C87.4787 17.3807 89.2022 16.8977 91.1719 16.8977C92.3082 16.8977 93.4304 17.0871 94.5384 17.4659C95.6463 17.8447 96.6548 18.4602 97.5639 19.3125C98.473 20.1553 99.1974 21.2727 99.7372 22.6648C100.277 24.0568 100.547 25.7708 100.547 27.8068V29.2273H83.7287V26.3295H97.1378C97.1378 25.0985 96.8916 24 96.3991 23.0341C95.9162 22.0682 95.2249 21.3059 94.3253 20.7472C93.4351 20.1884 92.384 19.9091 91.1719 19.9091C89.8366 19.9091 88.6813 20.2405 87.706 20.9034C86.7401 21.5568 85.9967 22.4091 85.4759 23.4602C84.955 24.5114 84.6946 25.6383 84.6946 26.8409V28.7727C84.6946 30.4205 84.9787 31.8172 85.5469 32.9631C86.1245 34.0994 86.9247 34.9659 87.9474 35.5625C88.9702 36.1496 90.1586 36.4432 91.5128 36.4432C92.3935 36.4432 93.1889 36.3201 93.8991 36.0739C94.6188 35.8182 95.2391 35.4394 95.7599 34.9375C96.2808 34.4261 96.6832 33.7917 96.9673 33.0341L100.206 33.9432C99.8651 35.0417 99.2921 36.0076 98.4872 36.8409C97.6823 37.6648 96.688 38.3087 95.5043 38.7727C94.3205 39.2273 92.9901 39.4545 91.5128 39.4545ZM107.294 39H103.601L114.283 9.90909H117.919L128.601 39H124.908L116.214 14.5114H115.987L107.294 39ZM108.658 27.6364H123.544V30.7614H108.658V27.6364ZM144.268 9.90909H147.791V30.7045C147.791 32.5606 147.45 34.1373 146.768 35.4347C146.087 36.732 145.125 37.7169 143.885 38.3892C142.644 39.0616 141.181 39.3977 139.496 39.3977C137.905 39.3977 136.489 39.1089 135.249 38.5312C134.008 37.9441 133.033 37.1108 132.322 36.0312C131.612 34.9517 131.257 33.6686 131.257 32.1818H134.723C134.723 33.0057 134.927 33.7254 135.334 34.3409C135.75 34.947 136.319 35.4205 137.038 35.7614C137.758 36.1023 138.577 36.2727 139.496 36.2727C140.509 36.2727 141.371 36.0597 142.081 35.6335C142.791 35.2074 143.331 34.5824 143.7 33.7585C144.079 32.9252 144.268 31.9072 144.268 30.7045V9.90909ZM196.385 39.4545C194.567 39.4545 192.962 38.9953 191.57 38.0767C190.178 37.1487 189.089 35.8419 188.303 34.1562C187.517 32.4612 187.124 30.4583 187.124 28.1477C187.124 25.8561 187.517 23.8674 188.303 22.1818C189.089 20.4962 190.182 19.1941 191.584 18.2756C192.985 17.357 194.605 16.8977 196.442 16.8977C197.862 16.8977 198.984 17.1345 199.808 17.608C200.642 18.072 201.276 18.6023 201.712 19.1989C202.157 19.786 202.502 20.2689 202.749 20.6477H203.033V9.90909H206.385V39H203.146V35.6477H202.749C202.502 36.0455 202.152 36.5473 201.697 37.1534C201.243 37.75 200.594 38.285 199.751 38.7585C198.909 39.2225 197.786 39.4545 196.385 39.4545ZM196.839 36.4432C198.184 36.4432 199.321 36.0928 200.249 35.392C201.177 34.6818 201.882 33.7017 202.365 32.4517C202.848 31.1922 203.089 29.7386 203.089 28.0909C203.089 26.4621 202.853 25.0369 202.379 23.8153C201.906 22.5843 201.205 21.6278 200.277 20.946C199.349 20.2547 198.203 19.9091 196.839 19.9091C195.419 19.9091 194.235 20.2737 193.288 21.0028C192.351 21.7225 191.645 22.7027 191.172 23.9432C190.708 25.1742 190.476 26.5568 190.476 28.0909C190.476 29.6439 190.713 31.0549 191.186 32.3239C191.669 33.5833 192.379 34.5871 193.317 35.3352C194.264 36.0739 195.438 36.4432 196.839 36.4432ZM212.99 39V17.1818H216.342V39H212.99ZM214.695 13.5455C214.041 13.5455 213.478 13.3229 213.004 12.8778C212.54 12.4328 212.308 11.8977 212.308 11.2727C212.308 10.6477 212.54 10.1127 213.004 9.66761C213.478 9.22254 214.041 9 214.695 9C215.348 9 215.907 9.22254 216.371 9.66761C216.844 10.1127 217.081 10.6477 217.081 11.2727C217.081 11.8977 216.844 12.4328 216.371 12.8778C215.907 13.3229 215.348 13.5455 214.695 13.5455Z" fill="white"/>
<circle cx="7.5" cy="7.5" r="7.5" fill="white"/>
<circle cx="29.5" cy="7.5" r="7.5" fill="white"/>
<path d="M174.641 14.7812C171.793 14.7812 169.339 16.1346 168 18.3765C166.661 16.1346 164.207 14.7812 161.359 14.7812C159.317 14.7837 157.359 15.5961 155.915 17.0402C154.471 18.4842 153.659 20.4421 153.656 22.4844C153.656 26.2815 156.047 30.2499 160.748 34.2768C162.919 36.1241 165.263 37.7577 167.748 39.155C167.825 39.1968 167.912 39.2188 168 39.2188C168.088 39.2188 168.175 39.1968 168.252 39.155C170.737 37.7577 173.081 36.1241 175.252 34.2768C179.953 30.2499 182.344 26.2815 182.344 22.4844C182.341 20.4421 181.529 18.4842 180.085 17.0402C178.641 15.5961 176.683 14.7837 174.641 14.7812ZM168 38.0792C166.141 37.022 154.719 30.1968 154.719 22.4844C154.721 20.7238 155.421 19.036 156.666 17.7911C157.911 16.5462 159.599 15.8459 161.359 15.8438C164.163 15.8438 166.519 17.3459 167.509 19.763C167.549 19.8605 167.617 19.9438 167.704 20.0025C167.792 20.0611 167.895 20.0924 168 20.0924C168.105 20.0924 168.208 20.0611 168.296 20.0025C168.383 19.9438 168.451 19.8605 168.491 19.763C169.481 17.3459 171.837 15.8438 174.641 15.8438C176.401 15.8459 178.089 16.5462 179.334 17.7911C180.579 19.036 181.279 20.7238 181.281 22.4844C181.281 30.1875 169.859 37.022 168 38.0792Z" fill="white"/>
</svg>
